# xmcd
#
# Track frame offsets: 
#        300
#        3610
#        26467
#        35305
#        55629
#        85702
#        121379
#        140720
#        164816
#        188771
#        218054
#        251057
#
# Disc length: 3953 seconds
#
# Revision: 0
# Processed by: cddbd v1.5.2PL0 Copyright (c) Steve Scherf et al.
# Submitted via: ExactAudioCopy v1.0b1
#
DISCID=a30f6d0c
DTITLE=Freddie King - Live In Dallas 1975
DYEAR=1975
DGENRE=General Blues
TTITLE0=KZEW Intro
TTITLE1=Big Legged Woman
TTITLE2=Woman Across The River
TTITLE3=While The Moon Is Shining Brig
TTITLE4=Ain't Nobody's Business
TTITLE5=Key To The Highway
TTITLE6=Hideaway
TTITLE7=Goin' Down
TTITLE8=Early One Morning
TTITLE9=Come On (Part III)
TTITLE10=Have You Ever Loved A Woman
TTITLE11=KZEW Outro - LSB Commercial
EXTD=
EXTT0=
EXTT1=
EXTT2=
EXTT3=
EXTT4=
EXTT5=
EXTT6=
EXTT7=
EXTT8=
EXTT9=
EXTT10=
EXTT11=
PLAYORDER=
